#define 1653410350468_width 30
#define 1653410350468_height 30
static char 1653410350468_bits[] = {
  0x00, 0xFC, 0x1F, 0x00, 0x00, 0xFF, 0x7F, 0x00, 0xC0, 0xFF, 0xFF, 0x03, 
  0xF0, 0x07, 0xE0, 0x07, 0xF0, 0x01, 0x80, 0x0F, 0x78, 0x00, 0x00, 0x1E, 
  0x3C, 0x00, 0x00, 0x1C, 0x1E, 0x18, 0x30, 0x38, 0x0E, 0x1C, 0x78, 0x38, 
  0x0E, 0x1C, 0x78, 0x30, 0x07, 0x1C, 0x78, 0x30, 0x07, 0x1C, 0x78, 0x30, 
  0x07, 0x1C, 0x38, 0x30, 0x07, 0x00, 0x00, 0x30, 0x07, 0x00, 0x00, 0x32, 
  0x07, 0x00, 0x00, 0x33, 0x87, 0x01, 0x00, 0x33, 0x87, 0x01, 0x80, 0x33, 
  0x87, 0x03, 0xC0, 0x39, 0x87, 0x07, 0xC0, 0x39, 0x06, 0x0F, 0xE0, 0x38, 
  0x0E, 0x3E, 0x78, 0x18, 0x0E, 0xFC, 0x7F, 0x1C, 0x1C, 0xF0, 0x1F, 0x0E, 
  0x38, 0x80, 0x07, 0x0F, 0x78, 0x00, 0x80, 0x07, 0xF0, 0x01, 0xC0, 0x07, 
  0xC0, 0x0F, 0xF8, 0x03, 0x80, 0xFF, 0xFF, 0x00, 0x00, 0xFC, 0x3F, 0x00, 
  };
