#define 1653410611354_width 30
#define 1653410611354_height 30
static char 1653410611354_bits[] = {
  0x00, 0x00, 0x00, 0x00, 0x00, 0x00, 0x00, 0x00, 0x00, 0x00, 0x00, 0x00, 
  0x00, 0x00, 0x0F, 0x00, 0x00, 0x80, 0x1F, 0x00, 0x00, 0x80, 0x1F, 0x00, 
  0x00, 0x80, 0x3B, 0x00, 0x00, 0x80, 0x3B, 0x00, 0x00, 0x80, 0x3B, 0x00, 
  0x00, 0x80, 0x39, 0x00, 0x00, 0xC0, 0x39, 0x00, 0x00, 0xE0, 0xF8, 0x3F, 
  0x00, 0xF0, 0xF8, 0x3F, 0xFF, 0x7B, 0x00, 0x30, 0xFF, 0x3F, 0xC0, 0x3F, 
  0x07, 0x1F, 0xC0, 0x3F, 0x07, 0x07, 0x80, 0x3F, 0x07, 0x03, 0x00, 0x30, 
  0x07, 0x03, 0xC0, 0x3F, 0x07, 0x03, 0xC0, 0x3F, 0x07, 0x03, 0x00, 0x30, 
  0x07, 0x03, 0x00, 0x38, 0x07, 0x03, 0xC0, 0x1F, 0x07, 0x03, 0xC0, 0x1F, 
  0x07, 0x0F, 0x00, 0x0C, 0x07, 0x1F, 0x00, 0x0F, 0xFF, 0xFF, 0xFF, 0x07, 
  0xFF, 0xF3, 0xFF, 0x03, 0x00, 0x00, 0x00, 0x00, 0x00, 0x00, 0x00, 0x00, 
  };
